<?xml version="1.0" standalone="no"?><!DOCTYPE svg PUBLIC "-//W3C//DTD SVG 1.1//EN" "http://www.w3.org/Graphics/SVG/1.1/DTD/svg11.dtd"><svg t="1729020344400" class="icon" viewBox="0 0 1024 1024" version="1.1" xmlns="http://www.w3.org/2000/svg" p-id="28552" xmlns:xlink="http://www.w3.org/1999/xlink" width="200" height="200"><path d="M101.26848 467.27168c-17.51552 0-31.73888 14.32064-31.73888 31.96928 0 17.64352 14.21824 31.94368 31.73888 31.94368 17.54624 0 31.76448-14.30016 31.76448-31.94368C133.03296 481.59744 118.81472 467.27168 101.26848 467.27168zM101.26848 722.944c-17.51552 0-31.73888 14.30016-31.73888 31.93856 0 17.67424 14.21824 31.9744 31.73888 31.9744 17.54624 0 31.76448-14.30016 31.76448-31.9744C133.03296 737.24416 118.81472 722.944 101.26848 722.944zM291.78368 275.5328l635.008 0c17.52064 0 31.73888-14.30016 31.73888-31.94368 0-17.67424-14.21824-31.9744-31.73888-31.9744L291.78368 211.61472c-17.54624 0-31.73888 14.30016-31.73888 31.9744C260.0448 261.23264 274.24256 275.5328 291.78368 275.5328zM926.7968 467.27168 291.78368 467.27168c-17.54624 0-31.73888 14.32064-31.73888 31.96928 0 17.64352 14.19264 31.94368 31.73888 31.94368l635.008 0c17.52064 0 31.73888-14.30016 31.73888-31.94368C958.53568 481.59744 944.31744 467.27168 926.7968 467.27168zM101.26848 211.61984c-17.51552 0-31.73888 14.30016-31.73888 31.9744 0 17.64352 14.21824 31.94368 31.73888 31.94368 17.54624 0 31.76448-14.30016 31.76448-31.94368C133.03296 225.92 118.81472 211.61984 101.26848 211.61984zM926.7968 722.944 291.78368 722.944c-17.54624 0-31.73888 14.30016-31.73888 31.93856 0 17.67424 14.19264 31.9744 31.73888 31.9744l635.008 0c17.52064 0 31.73888-14.30016 31.73888-31.9744C958.53568 737.24416 944.31744 722.944 926.7968 722.944z" fill="#999999" p-id="28553"></path></svg>