<?xml version="1.0" standalone="no"?><!DOCTYPE svg PUBLIC "-//W3C//DTD SVG 1.1//EN" "http://www.w3.org/Graphics/SVG/1.1/DTD/svg11.dtd"><svg t="1729019456997" class="icon" viewBox="0 0 1024 1024" version="1.1" xmlns="http://www.w3.org/2000/svg" p-id="7321" xmlns:xlink="http://www.w3.org/1999/xlink" width="200" height="200"><path d="M956.1 500.7l-39.6-39.6-217.8-217.8a3.9 3.9 0 0 0-5.6 0l-45.3 45.3a4 4 0 0 0 0 5.6l215 215a3.9 3.9 0 0 1 0 5.6l-215 215a4 4 0 0 0 0 5.6l45.3 45.3a3.9 3.9 0 0 0 5.6 0l217.8-217.8 39.6-39.6a15.9 15.9 0 0 0 0-22.6zM376.6 294.2a3.9 3.9 0 0 0 0-5.6l-45.2-45.3a4 4 0 0 0-5.7 0L107.9 461.1l-39.5 39.6a15.9 15.9 0 0 0 0 22.6l39.5 39.6 217.8 217.8a4 4 0 0 0 5.7 0l45.2-45.3a3.9 3.9 0 0 0 0-5.6l-214.9-215a3.9 3.9 0 0 1 0-5.6z m239.2-186.3l-63.1-11.1a3.9 3.9 0 0 0-4.6 3.2L405 911.5a4 4 0 0 0 3.2 4.6l63.1 11.1a3.9 3.9 0 0 0 4.6-3.2L619 112.5a4 4 0 0 0-3.2-4.6z" p-id="7322"></path></svg>