<?xml version="1.0" standalone="no"?><!DOCTYPE svg PUBLIC "-//W3C//DTD SVG 1.1//EN" "http://www.w3.org/Graphics/SVG/1.1/DTD/svg11.dtd"><svg t="1729019780876" class="icon" viewBox="0 0 1024 1024" version="1.1" xmlns="http://www.w3.org/2000/svg" p-id="14363" xmlns:xlink="http://www.w3.org/1999/xlink" width="200" height="200"><path d="M277.333333 341.333333h85.333334V256h-85.333334v85.333333z" fill="#48494A" p-id="14364"></path><path d="M106.666667 149.333333a42.666667 42.666667 0 0 1 42.666666-42.666666h725.333334a42.666667 42.666667 0 0 1 42.666666 42.666666v298.666667a42.666667 42.666667 0 0 1-42.666666 42.666667h-725.333334a42.666667 42.666667 0 0 1-42.666666-42.666667v-298.666667z m85.333333 256h640v-213.333333h-640v213.333333zM277.333333 768h85.333334v-85.333333h-85.333334v85.333333z" fill="#48494A" p-id="14365"></path><path d="M106.666667 576a42.666667 42.666667 0 0 1 42.666666-42.666667h725.333334a42.666667 42.666667 0 0 1 42.666666 42.666667v298.666667a42.666667 42.666667 0 0 1-42.666666 42.666666h-725.333334a42.666667 42.666667 0 0 1-42.666666-42.666666v-298.666667z m85.333333 256h640v-213.333333h-640v213.333333z" fill="#48494A" p-id="14366"></path></svg>