<?xml version="1.0" standalone="no"?><!DOCTYPE svg PUBLIC "-//W3C//DTD SVG 1.1//EN" "http://www.w3.org/Graphics/SVG/1.1/DTD/svg11.dtd"><svg t="1729019796237" class="icon" viewBox="0 0 1024 1024" version="1.1" xmlns="http://www.w3.org/2000/svg" p-id="14510" xmlns:xlink="http://www.w3.org/1999/xlink" width="200" height="200"><path d="M149.333333 106.666667a42.666667 42.666667 0 0 0-42.666666 42.666666v298.666667a42.666667 42.666667 0 0 0 42.666666 42.666667h725.333334a42.666667 42.666667 0 0 0 42.666666-42.666667v-298.666667a42.666667 42.666667 0 0 0-42.666666-42.666666h-725.333334z m213.333334 234.666666h-85.333334V256h85.333334v85.333333z m-85.333334 426.666667h85.333334v-85.333333h-85.333334v85.333333z m-128-234.666667a42.666667 42.666667 0 0 0-42.666666 42.666667v298.666667a42.666667 42.666667 0 0 0 42.666666 42.666666h725.333334a42.666667 42.666667 0 0 0 42.666666-42.666666v-298.666667a42.666667 42.666667 0 0 0-42.666666-42.666667h-725.333334z m682.666667 298.666667h-640v-213.333333h640v213.333333z" fill="#48494A" p-id="14511"></path></svg>