<?xml version="1.0" standalone="no"?><!DOCTYPE svg PUBLIC "-//W3C//DTD SVG 1.1//EN" "http://www.w3.org/Graphics/SVG/1.1/DTD/svg11.dtd"><svg t="1729020220726" class="icon" viewBox="0 0 1024 1024" version="1.1" xmlns="http://www.w3.org/2000/svg" p-id="24637" xmlns:xlink="http://www.w3.org/1999/xlink" width="200" height="200"><path d="M920.946 612.03c21.569 0 39.054 17.485 39.054 39.054 0 21.569-17.485 39.054-39.054 39.054H668.357l-28.22 230.809c0 21.569-17.485 39.054-39.054 39.054-21.569 0-39.054-17.485-39.054-39.054l28.22-230.809H390.19l-28.22 230.809c0 21.569-17.485 39.054-39.054 39.054-21.569 0-39.053-17.485-39.053-39.054l28.22-230.809H103.054C81.485 690.137 64 672.652 64 651.083s17.485-39.054 39.054-39.054h218.579l24.46-200.059h-243.04C81.485 411.97 64 394.485 64 372.917c0-21.569 17.485-39.054 39.054-39.054h252.589l28.22-230.809c0-21.569 17.485-39.054 39.054-39.054 21.569 0 39.054 17.485 39.054 39.054l-28.22 230.809H633.81l28.22-230.809C662.03 81.485 679.515 64 701.083 64c21.569 0 39.054 17.485 39.054 39.054l-28.22 230.809h209.03c21.569 0 39.054 17.485 39.054 39.054 0 21.569-17.485 39.054-39.054 39.054h-218.58l-24.46 200.059h243.039zM624.26 411.97H424.201L399.74 612.03h200.059l24.461-200.06z" fill="" p-id="24638"></path></svg>