<?xml version="1.0" standalone="no"?><!DOCTYPE svg PUBLIC "-//W3C//DTD SVG 1.1//EN" "http://www.w3.org/Graphics/SVG/1.1/DTD/svg11.dtd"><svg t="1729019687908" class="icon" viewBox="0 0 1024 1024" version="1.1" xmlns="http://www.w3.org/2000/svg" p-id="12354" xmlns:xlink="http://www.w3.org/1999/xlink" width="200" height="200"><path d="M899.1 278.6L741.6 123.7c-18.1-17.8-42-27.5-67.3-27.5H346.7c-25.6 0-49.8 10-67.9 28.1L124.3 278.9c-18.1 18.1-28.1 42.2-28.1 67.9v485c0 38.1 22.3 71.1 54.5 86.6l0.1 0.1c12.5 6 26.6 9.4 41.4 9.4h639.6c14.8 0 28.8-3.4 41.4-9.4l0.2 0.2 0.5-0.5c31.9-15.6 54-48.4 54-86.3V347.1c-0.1-25.6-10.6-50.5-28.8-68.5zM732.5 689.9V352.3h131.3v467.1L732.5 689.9zM160.2 818.7V352.3h128.1v338.5L160.2 818.7z m192.1-146.6V352.3h316.2v319.8H352.3z m-0.1-511.9h316.2v128.1H352.2V160.2z m465.4 128.1h-85.2v-83.7l85.2 83.7z m-529.4-82.8v82.8h-82.8l82.8-82.8z m-82.6 658.3l128-127.7h354.6l129.6 127.7H205.6z" fill="#6E768E" p-id="12355"></path></svg>