<?xml version="1.0" standalone="no"?><!DOCTYPE svg PUBLIC "-//W3C//DTD SVG 1.1//EN" "http://www.w3.org/Graphics/SVG/1.1/DTD/svg11.dtd"><svg t="1729021186424" class="icon" viewBox="0 0 1024 1024" version="1.1" xmlns="http://www.w3.org/2000/svg" p-id="3357" xmlns:xlink="http://www.w3.org/1999/xlink" width="200" height="200"><path d="M204.8 716.8a102.4 102.4 0 1 1 0 204.8 102.4 102.4 0 0 1 0-204.8z m307.2 0a102.4 102.4 0 1 1 0 204.8 102.4 102.4 0 0 1 0-204.8z m307.2 0a102.4 102.4 0 1 1 0 204.8 102.4 102.4 0 0 1 0-204.8zM204.8 409.6a102.4 102.4 0 1 1 0 204.8 102.4 102.4 0 0 1 0-204.8z m307.2 0a102.4 102.4 0 1 1 0 204.8 102.4 102.4 0 0 1 0-204.8z m307.2 0a102.4 102.4 0 1 1 0 204.8 102.4 102.4 0 0 1 0-204.8zM204.8 102.4a102.4 102.4 0 1 1 0 204.8 102.4 102.4 0 0 1 0-204.8z m307.2 0a102.4 102.4 0 1 1 0 204.8 102.4 102.4 0 0 1 0-204.8z m307.2 0a102.4 102.4 0 1 1 0 204.8 102.4 102.4 0 0 1 0-204.8z" fill="#171B24" p-id="3358"></path></svg>