<?xml version="1.0" standalone="no"?><!DOCTYPE svg PUBLIC "-//W3C//DTD SVG 1.1//EN" "http://www.w3.org/Graphics/SVG/1.1/DTD/svg11.dtd"><svg t="1729020307900" class="icon" viewBox="0 0 1024 1024" version="1.1" xmlns="http://www.w3.org/2000/svg" p-id="27585" xmlns:xlink="http://www.w3.org/1999/xlink" width="200" height="200"><path d="M857.7 233.1H658.4c-14.8 0-27.8-10-31.5-24.4C598.4 98.5 498.4 17.1 379.3 17.1h-225c-59.2 0-107.2 48-107.2 107.2v775.5c0 59.2 48 107.2 107.2 107.2h703.5c65.8 0 119.2-53.4 119.2-119.2V352.2c-0.1-65.8-53.4-119.1-119.3-119.1zM117.1 124.3c0-20.5 16.6-37.2 37.2-37.2h223.5c50 0 98.2 19.4 133.4 54.9 12.9 13 23.6 27.5 32 43.2 11.6 21.6-4.2 47.8-28.8 47.8H153.6c-20.2 0-36.5-16.4-36.5-36.5v-72.2z m789.8 763.4c0 27.2-22 49.2-49.2 49.2H166.3c-27.1 0-49.2-22.1-49.2-49.2V339.6c0-20.2 16.4-36.5 36.5-36.5h704.2c27.2 0 49.2 22 49.2 49.2v535.4z" p-id="27586"></path><path d="M305.5 434h-46c-20.4 0-37 16.6-37 37v46c0 20.4 16.6 37 37 37h46c20.4 0 37-16.6 37-37v-46c0-20.5-16.6-37-37-37zM766.9 434H452.1c-19.1 0-34.6 15.5-34.6 34.6v50.9c0 19.1 15.5 34.6 34.6 34.6H767c19.1 0 34.6-15.5 34.6-34.6v-50.9c-0.1-19.1-15.6-34.6-34.7-34.6zM305.5 686h-46c-20.4 0-37 16.6-37 37v46c0 20.4 16.6 37 37 37h46c20.4 0 37-16.6 37-37v-46c0-20.5-16.6-37-37-37zM766.9 686H452.1c-19.1 0-34.6 15.5-34.6 34.6v50.9c0 19.1 15.5 34.6 34.6 34.6H767c19.1 0 34.6-15.5 34.6-34.6v-50.9c-0.1-19.1-15.6-34.6-34.7-34.6z" p-id="27587"></path></svg>