<?xml version="1.0" standalone="no"?><!DOCTYPE svg PUBLIC "-//W3C//DTD SVG 1.1//EN" "http://www.w3.org/Graphics/SVG/1.1/DTD/svg11.dtd"><svg t="1729019860771" class="icon" viewBox="0 0 1024 1024" version="1.1" xmlns="http://www.w3.org/2000/svg" p-id="16524" xmlns:xlink="http://www.w3.org/1999/xlink" width="200" height="200"><path d="M640 0H128a64 64 0 0 0-64 64v896a64 64 0 0 0 64 64h768a64 64 0 0 0 64-64V320L640 0z" fill="#EAEAEA" p-id="16525"></path><path d="M640 0v256a64 64 0 0 0 64 64h256L640 0z" fill="#434854" p-id="16526"></path><path d="M704 320l256 256v-256z" fill="" p-id="16527"></path><path d="M224 256h256a32 32 0 1 0 0-64H224a32 32 0 1 0 0 64zM224 384h256a32 32 0 1 0 0-64H224a32 32 0 1 0 0 64zM224 512h576a32 32 0 1 0 0-64H224a32 32 0 1 0 0 64zM800 576H224a32 32 0 1 0 0 64h576a32 32 0 1 0 0-64zM800 704H224a32 32 0 1 0 0 64h576a32 32 0 1 0 0-64zM800 832H224a32 32 0 1 0 0 64h576a32 32 0 1 0 0-64z" fill="" p-id="16528"></path></svg>