<?xml version="1.0" standalone="no"?><!DOCTYPE svg PUBLIC "-//W3C//DTD SVG 1.1//EN" "http://www.w3.org/Graphics/SVG/1.1/DTD/svg11.dtd"><svg t="1729020849645" class="icon" viewBox="0 0 1024 1024" version="1.1" xmlns="http://www.w3.org/2000/svg" p-id="2349" xmlns:xlink="http://www.w3.org/1999/xlink" width="200" height="200"><path d="M170.666667 955.733333c-66.030933 0-102.4-36.369067-102.4-102.4V341.333333v-0.0512a16.861867 16.861867 0 0 1 5.000533-12.014933l256-256A17.220267 17.220267 0 0 1 341.282133 68.266667H682.666667c66.030933 0 102.4 36.369067 102.4 102.4v409.6h153.6a17.066667 17.066667 0 0 1 17.066666 17.066666v170.666667a17.066667 17.066667 0 0 1-17.066666 17.066667h-153.6v74.24c-1.9968 60.398933-36.027733 94.429867-95.863467 96.4096L170.666667 955.733333zM102.4 358.4v494.933333c0 47.223467 21.0432 68.266667 68.266667 68.266667h517.973333c41.5232-1.3824 60.910933-20.7872 62.3104-62.8736L750.933333 785.066667H512.853333a17.066667 17.066667 0 0 1-17.066666-17.066667V597.333333a17.066667 17.066667 0 0 1 17.066666-17.066666H750.933333V170.666667c0-47.223467-21.0432-68.266667-68.266666-68.266667H358.4v238.933333a17.066667 17.066667 0 0 1-17.066667 17.066667H102.4z m665.6 392.533333h153.6v-136.533333H529.92v136.533333H768zM126.532267 324.266667H324.266667V126.532267L126.532267 324.266667z" p-id="2350"></path></svg>