<?xml version="1.0" standalone="no"?><!DOCTYPE svg PUBLIC "-//W3C//DTD SVG 1.1//EN" "http://www.w3.org/Graphics/SVG/1.1/DTD/svg11.dtd"><svg t="1729019915800" class="icon" viewBox="0 0 1024 1024" version="1.1" xmlns="http://www.w3.org/2000/svg" p-id="17821" xmlns:xlink="http://www.w3.org/1999/xlink" width="200" height="200"><path d="M546.65 887.3H278.27c-3.8 0-6.91-3.06-6.95-6.87V503.35a6.964 6.964 0 0 1 6.96-6.96h329.83l20.11-20.11 55.48-55.39h197.94c1.84 0 3.61 0.73 4.9 2.04a6.91 6.91 0 0 1 2.01 4.92v130.58c0.67 18.42 15.79 33.01 34.23 33.01 18.43 0 33.55-14.59 34.22-33.01V427.85a75.4 75.4 0 0 0-22.07-53.29 75.364 75.364 0 0 0-53.29-22.07h-198.8V134.26c0.03-37.71-30.47-68.33-68.18-68.45H135.4C97.62 65.84 67 96.47 67 134.26v616.05a68.407 68.407 0 0 0 68.41 68.45h67.55v61.67c0 20 7.94 39.18 22.09 53.32a75.411 75.411 0 0 0 53.32 22.09h267.97c18.87 0 34.16-15.29 34.16-34.16 0-18.86-15.29-34.16-34.16-34.16l0.31-0.22zM168.03 750.45c-8.66 0-16.96-3.44-23.08-9.57a32.634 32.634 0 0 1-9.54-23.09v-550.9c0-18.02 14.61-32.62 32.62-32.62h414c8.65 0 16.95 3.44 23.07 9.55a32.631 32.631 0 0 1 9.56 23.07v226.22l-34.75 34.74H278.27c-41.6 0.03-75.31 33.76-75.31 75.37v247.1h-34.93v0.13z m70.12-445H512c18.42-0.67 33.01-15.79 33.01-34.22s-14.59-33.56-33.01-34.22H238.15c-18.42 0.67-33 15.79-33 34.22s14.58 33.56 33 34.22z m544.71 483.27" p-id="17822"></path><path d="M743.86 959.41c-12.19 0-22.08-9.88-22.08-22.08V783.39H583.65c-12.19 0-22.08-9.88-22.08-22.08v-28.74c0-12.19 9.88-22.08 22.08-22.08h138.13v-137.4c0-12.19 9.88-22.08 22.08-22.08h33.77c12.19 0 22.08 9.88 22.08 22.08V710.5h137.41c12.19 0 22.08 9.88 22.08 22.08v28.74c0 12.19-9.88 22.08-22.08 22.08H799.7v153.94c0 12.19-9.88 22.08-22.08 22.08h-33.76z" p-id="17823"></path></svg>