<?xml version="1.0" standalone="no"?><!DOCTYPE svg PUBLIC "-//W3C//DTD SVG 1.1//EN" "http://www.w3.org/Graphics/SVG/1.1/DTD/svg11.dtd"><svg t="1729019623535" class="icon" viewBox="0 0 1024 1024" version="1.1" xmlns="http://www.w3.org/2000/svg" p-id="11349" xmlns:xlink="http://www.w3.org/1999/xlink" width="200" height="200"><path d="M557.66613334 883.42826666l-28.10133333 104.05333333 104.05333333-24.304-75.952-79.74933333z m23.92533333-24.6848l80.13013334 81.64906666 248.36266666-249.1232-80.5088-81.2672-247.98293333 248.74133334z m268.49066667-270.768l81.26826667 81.26826666 66.83733333-63.04s16.70933333-20.50666667 0-37.97546666l-47.09013333-46.3296s-23.54453333-15.95093333-41.0144 0l-60.00106667 66.0768z" fill="#000000" p-id="11350"></path><path d="M514.03166666 837.745H371.85366666V690.263H587.62666666v73.684l54.611-54.762v-19.327h19.274l49.953-50.091c-22.933-0.001-46.03-0.017-69.415-0.017v-147.1H858.17666666l58.22-58.38c0.01-82.397 0.018-164.794 0.01-247.19-0.003-43.034-14.859-57.687-58.18-57.701-125.605-0.042-251.195-0.014-376.786-0.014-127.794 0.004-255.575-0.088-383.37 0.06-39.4 0.037-55.196 15.118-55.233 53.801-0.203 218.332-0.19 436.667-0.024 654.998 0.037 40.162 15.76 55.478 55.856 55.492 119.833 0.03 239.664 0.046 359.496 0.047l55.867-56.018z m128.492-543.599h216.419v146.117H642.52366666V294.146z m-271.168 0.213h216.013v145.287H371.35566666V294.36z m-272.85 0.456h217.91V441.64c-69.276 0-136.355 0.285-203.415-0.595-4.882-0.06-13.748-8.488-13.86-13.196-1.082-43.632-0.635-87.313-0.635-133.035z m217.727 197.012v146.005H100.21166666V491.827h216.02z m0.613 345.065H99.83666666v-147.32H316.84666666v147.32z m53.984-344.383h217.064v145.56H370.82966666v-145.56z m38.366-328.857c24.744 0 44.802 20.057 44.802 44.803 0 24.742-20.058 44.8-44.802 44.8s-44.803-20.057-44.803-44.8c0-24.746 20.06-44.803 44.803-44.803z m-134.405 0c24.741 0 44.801 20.057 44.801 44.803 0 24.742-20.059 44.8-44.801 44.8-24.745 0-44.803-20.057-44.803-44.8 0-24.746 20.058-44.803 44.803-44.803z m-134.406 0c24.742 0 44.802 20.057 44.802 44.803 0 24.742-20.059 44.8-44.802 44.8-24.745 0-44.802-20.057-44.802-44.8 0-24.746 20.058-44.803 44.802-44.803z" fill="#000000" p-id="11351"></path></svg>