<?xml version="1.0" standalone="no"?><!DOCTYPE svg PUBLIC "-//W3C//DTD SVG 1.1//EN" "http://www.w3.org/Graphics/SVG/1.1/DTD/svg11.dtd"><svg t="1729020012413" class="icon" viewBox="0 0 1024 1024" version="1.1" xmlns="http://www.w3.org/2000/svg" p-id="20002" xmlns:xlink="http://www.w3.org/1999/xlink" width="200" height="200"><path d="M436 128H168a40 40 0 0 0-40 40v268a40 40 0 0 0 40 40h268a40 40 0 0 0 40-40V168a40 40 0 0 0-40-40z m420 0H588a40 40 0 0 0-40 40v268a40 40 0 0 0 40 40h268a40 40 0 0 0 40-40V168a40 40 0 0 0-40-40zM436 548H168a40 40 0 0 0-40 40v268a40 40 0 0 0 40 40h268a40 40 0 0 0 40-40V588a40 40 0 0 0-40-40z m440 230H568a4 4 0 0 0-4 4v64a4 4 0 0 0 4 4h308a4 4 0 0 0 4-4v-64a4 4 0 0 0-4-4z m0-184H568a4 4 0 0 0-4 4v64a4 4 0 0 0 4 4h308a4 4 0 0 0 4-4v-64a4 4 0 0 0-4-4z" p-id="20003"></path></svg>